<svg id="visual" viewBox="0 0 900 64" width="900" height="64" xmlns="http://www.w3.org/2000/svg" xmlns:xlink="http://www.w3.org/1999/xlink" version="1.1"><path d="M0 23L56 17L113 24L169 23L225 17L281 22L338 24L394 16L450 20L506 14L563 27L619 20L675 13L731 23L788 13L844 27L900 19L900 0L844 0L788 0L731 0L675 0L619 0L563 0L506 0L450 0L394 0L338 0L281 0L225 0L169 0L113 0L56 0L0 0Z" fill="#0a9ecd"></path><path d="M0 36L56 37L113 39L169 36L225 41L281 38L338 48L394 41L450 41L506 43L563 48L619 41L675 36L731 42L788 36L844 39L900 49L900 17L844 25L788 11L731 21L675 11L619 18L563 25L506 12L450 18L394 14L338 22L281 20L225 15L169 21L113 22L56 15L0 21Z" fill="#008bd1"></path><path d="M0 51L56 53L113 55L169 53L225 54L281 52L338 59L394 55L450 54L506 59L563 57L619 51L675 53L731 52L788 52L844 52L900 58L900 47L844 37L788 34L731 40L675 34L619 39L563 46L506 41L450 39L394 39L338 46L281 36L225 39L169 34L113 37L56 35L0 34Z" fill="#0076ce"></path><path d="M0 65L56 65L113 65L169 65L225 65L281 65L338 65L394 65L450 65L506 65L563 65L619 65L675 65L731 65L788 65L844 65L900 65L900 56L844 50L788 50L731 50L675 51L619 49L563 55L506 57L450 52L394 53L338 57L281 50L225 52L169 51L113 53L56 51L0 49Z" fill="#295dc5"></path></svg>